<?xml version="1.0" encoding="utf-8"?>
<svg id="TEXTOS" xmlns="http://www.w3.org/2000/svg" viewBox="0 0 1024 1007.21" xmlns:bx="https://boxy-svg.com">
  <defs>
    <style>
      .cls-1 {
        fill: #fff;
      }

      .cls-2 {
        fill: none;
        stroke: #b17f4a;
        stroke-miterlimit: 10;
        stroke-width: 3px;
      }

      .cls-3 {
        fill: #ca9e67;
      }

      .cls-4 {
        fill: #936037;
      }
    </style>
    <bx:export>
      <bx:file format="png" path="Sin título.png" excluded="true"/>
      <bx:file format="webp" path="Sin título.webp" excluded="true"/>
    </bx:export>
  </defs>
  <g transform="matrix(1.17882, 0, 0, 1.17882, -91.555885, -48.662075)">
    <g transform="matrix(0.923247, 0, 0, 0.976141, 38.752636, 285.910461)" style="">
      <g transform="matrix(1, 0, 0, 1, 18.807243, 0)">
        <g transform="matrix(1, 0, 0, 1, 0, 1.058365)">
          <g style="" transform="matrix(0.736444, 0, 0, 0.652505, 5.524432, 250.836609)">
            <path class="cls-2" d="M168.4,253.64c.17,2.08.06,4.59-.29,7.01-.48,3.3-2.94,5.43-4.81,6.94-1.87,1.52-4.83,2.12-8.88,1.82-9.1-.71-23.95-8.23-29.05-8.49-5.11-.25-11.81-.43-20.1-.53-3.74,18.61-7.18,37.31-10.32,56.12-1.11,6.88-2.28,14.84-3.49,23.89-1.21,9.05-2.02,16.36-2.43,21.92-.2,2.93-1.42,5.18-3.64,6.75-2.22,1.57-4.9,2.35-8.04,2.35-3.34,0-5.92-.81-7.73-2.43-1.82-1.62-2.73-3.74-2.73-6.37,0-2.43.38-6.45,1.14-12.06.76-5.61,1.64-11.5,2.65-17.67,1.11-6.17,1.97-11.53,2.58-16.08,1.11-7.68,2.38-15.32,3.79-22.9,1.42-7.58,2.83-14.76,4.25-21.54.3-1.52.66-3.26,1.06-5.23s.86-4.17,1.37-6.6c-9.91.3-17.7,1.11-23.36,2.43-5.66,1.31-9.68,3.16-12.06,5.54-2.38,2.38-3.56,5.44-3.56,9.18,0,3.44,1.01,6.73,3.03,9.86.4.71.6,1.47.6,2.28,0,1.92-1.14,3.72-3.41,5.38-2.28,1.67-4.62,2.5-7.05,2.5-1.72,0-3.14-.5-4.25-1.52-2.03-1.72-3.69-4.17-5.01-7.36-1.31-3.19-1.97-6.8-1.97-10.85,0-8.59,2.81-15.49,8.42-20.7,5.61-5.21,14.16-9.03,25.63-11.45,11.48-2.43,26.22-3.64,44.21-3.64,11.12,0,20,.2,26.62.61,6.62.41,22.47,3.89,27.43,4.8,3.14.61,9.06,2.09,9.38,6.04Z" style="stroke: none; fill: rgb(177, 127, 74);"/>
            <path class="cls-2" d="M170.59,346.28c-3.79,2.07-4.25,3.15-8.5,3.15-5.36,0-9.43-1.37-12.21-4.1-2.78-2.73-4.17-6.42-4.17-11.07,0-1.52.15-3.03.46-4.55.2-2.02.3-3.39.3-4.1,0-1.62-.56-2.43-1.67-2.43-1.52,0-3.51,1.7-5.99,5.08-2.48,3.39-4.93,7.86-7.36,13.43-2.43,5.56-4.4,11.43-5.92,17.59-1.11,4.75-2.4,7.96-3.87,9.63-1.47,1.67-3.77,2.5-6.9,2.5-3.84,0-6.55-2.02-8.11-6.07-1.57-4.04-2.35-10.52-2.35-19.42,0-13.14,1.87-25.63,5.61-37.46.91-2.93,2.4-5.08,4.47-6.45,2.07-1.36,4.98-2.05,8.72-2.05,2.02,0,3.44.25,4.25.76.81.51,1.21,1.47,1.21,2.88,0,1.62-.76,5.26-2.28,10.92-1.01,4.04-1.82,7.58-2.43,10.62-.61,3.03-1.11,6.78-1.52,11.22,3.34-8.7,7.08-15.77,11.22-21.23,4.15-5.46,8.21-9.35,12.21-11.68,3.99-2.32,7.66-3.49,11-3.49,6.57,0,9.86,3.29,9.86,9.86,0,1.31-.46,4.5-1.37,9.56-.81,4.04-1.21,6.58-1.21,7.58,0,3.54,1.26,5.31,3.79,5.31,2.83,0,3.95-2.67,8.4-7.12" style="stroke: none; fill: rgb(177, 127, 74);"/>
            <path class="cls-2" d="M246.48,361.73c-4.65,3.54-15.12,9.7-19.47,9.7-3.34,0-6.4-1.14-9.18-3.41-2.78-2.28-4.88-5.39-6.3-9.33-5.26,8.49-11.88,12.74-19.87,12.74-6.27,0-11.28-2.28-15.02-6.83-3.74-4.55-5.61-10.52-5.61-17.9,0-8.09,1.87-15.75,5.61-22.98,3.74-7.23,8.72-13.04,14.94-17.44,6.22-4.4,12.82-6.6,19.79-6.6,2.22,0,3.72.43,4.48,1.29.76.86,1.39,2.4,1.9,4.63,2.12-.4,4.34-.61,6.67-.61,4.95,0,7.43,1.77,7.43,5.31,0,2.12-.76,7.18-2.28,15.17-2.33,11.63-3.49,19.72-3.49,24.27,0,1.52.38,2.73,1.14,3.64.76.91,1.74,1.37,2.96,1.37,1.92,0,11.22-6.32,13.95-8.8M203.5,352.16c2.02-2.63,3.49-6.12,4.4-10.47l5.61-27.91c-4.25.1-8.17,1.7-11.75,4.78-3.59,3.09-6.45,7.16-8.57,12.21-2.12,5.06-3.18,10.42-3.18,16.08,0,3.14.63,5.46,1.9,6.98,1.26,1.52,3.01,2.28,5.23,2.28s4.35-1.31,6.37-3.94Z" style="stroke: none; fill: rgb(177, 127, 74);"/>
            <path class="cls-2" d="M287.48,356.69c-10.01,12.24-15.83,14.74-24.52,14.74-6.58,0-11.35-2.32-14.34-6.98-2.98-4.65-4.47-10.82-4.47-18.51,0-4.55.58-10.39,1.74-17.52,1.16-7.13,2.65-13.78,4.48-19.95.91-3.23,2.12-5.46,3.64-6.67,1.52-1.21,3.94-1.82,7.28-1.82,5.16,0,7.74,1.72,7.74,5.16,0,2.53-.96,8.39-2.88,17.6-2.43,11.12-3.64,18.65-3.64,22.6,0,3.04.4,5.36,1.21,6.98.81,1.62,2.17,2.43,4.09,2.43,1.82,0,4.09-1.26,6.83-3.79,2.73-2.53,4.3-4.07,8.85-9.53M254.62,287.02c-2.12-1.97-3.19-4.73-3.19-8.27s1.39-6.5,4.17-8.87c2.78-2.37,6.24-3.56,10.39-3.56,3.74,0,6.77.91,9.1,2.73,2.32,1.82,3.49,4.4,3.49,7.74,0,4.04-1.31,7.26-3.94,9.63-2.63,2.38-6.12,3.57-10.47,3.57s-7.43-.99-9.55-2.96Z" style="stroke: none; fill: rgb(177, 127, 74);"/>
            <path class="cls-2" d="M334.52,360.73c-5.11,3.44-19.14,10.7-25.61,10.7-8.9,0-15.49-4.04-19.79-12.13-4.3-8.09-6.45-18.56-6.45-31.4s1.59-26.39,4.78-42.17c3.18-15.77,7.89-29.32,14.1-40.65,6.22-11.32,13.63-16.99,22.22-16.99,4.86,0,8.67,2.25,11.45,6.75,2.78,4.5,4.17,10.95,4.17,19.34,0,12.03-3.34,25.99-10.01,41.86-6.67,15.88-15.73,31.6-27.15,47.17.71,4.15,1.87,7.1,3.49,8.87s3.74,2.65,6.37,2.65c4.14,0,13.97-3.92,17.11-6.29M312.55,255.69c-2.93,8.39-5.51,18.81-7.73,31.25-2.23,12.44-3.44,24.37-3.64,35.8,7.18-11.83,12.89-23.69,17.14-35.57,4.25-11.88,6.37-22.73,6.37-32.53,0-7.68-1.42-11.53-4.25-11.53-2.33,0-4.96,4.2-7.89,12.59Z" style="stroke: none; fill: rgb(177, 127, 74);"/>
            <path class="cls-2" d="M392.69,361.99c-6.83,3.84-22.6,9.44-30.38,9.44-10.62,0-18.86-2.88-24.72-8.64-5.87-5.76-8.8-13.65-8.8-23.66,0-6.98,1.46-13.47,4.4-19.49,2.93-6.01,7-10.79,12.21-14.33,5.21-3.54,11.1-5.31,17.67-5.31,5.86,0,10.57,1.74,14.1,5.23,3.54,3.49,5.31,8.22,5.31,14.18,0,6.98-2.5,12.97-7.51,17.97-5.01,5.01-13.48,8.98-25.41,11.91,2.53,4.65,7.33,6.98,14.41,6.98,4.55,0,9.73-1.59,15.55-4.78,5.81-3.18,7.5-4.43,11.74-9.59M351,321.37c-2.58,4.35-3.87,9.61-3.87,15.77v.3c5.97-1.42,10.67-3.54,14.1-6.37,3.44-2.83,5.16-6.12,5.16-9.86,0-1.92-.53-3.46-1.59-4.63-1.06-1.16-2.5-1.74-4.32-1.74-3.74,0-6.9,2.18-9.48,6.52Z" style="stroke: none; fill: rgb(177, 127, 74);"/>
            <path class="cls-2" d="M457.63,323.12c1.57,1.57,2.35,3.51,2.35,5.84,0,1.32-.3,2.73-.91,4.25-1.62,3.74-3.89,6.88-6.83,9.41-2.93,2.53-6.17,3.79-9.71,3.79-2.83,0-5.23-1.01-7.2-3.03s-2.96-4.75-2.96-8.19c0-1.92.1-3.99.3-6.22.2-1.62.3-2.73.3-3.34,0-.81-.18-1.42-.53-1.82s-.78-.61-1.29-.61c-1.42,0-3.34,1.7-5.76,5.08-2.43,3.39-4.85,7.86-7.28,13.43-2.43,5.56-4.4,11.43-5.92,17.59-1.12,4.85-2.38,8.09-3.79,9.71-1.42,1.62-3.74,2.43-6.98,2.43-3.84,0-6.55-2.02-8.12-6.07-1.57-4.04-2.35-10.52-2.35-19.42,0-13.14,1.87-25.63,5.61-37.46.91-2.93,2.4-5.08,4.48-6.45,2.07-1.36,4.98-2.05,8.72-2.05,2.02,0,3.43.25,4.25.76.81.51,1.21,1.47,1.21,2.88,0,1.62-.76,5.26-2.28,10.92-1.01,4.04-1.82,7.58-2.43,10.62-.61,3.03-1.12,6.78-1.52,11.22,3.34-8.7,7.08-15.77,11.22-21.23,4.14-5.46,8.19-9.35,12.13-11.68,3.94-2.32,7.53-3.49,10.77-3.49,2.93,0,5.18.83,6.75,2.5,1.57,1.67,2.35,4.12,2.35,7.36,0,1.92-.56,5.56-1.67,10.92h1.36c2.22,0,4.12.78,5.69,2.35Z" style="stroke: none; fill: rgb(177, 127, 74);"/>
          </g>
          <g style="" transform="matrix(0.594606, 0, 0, 0.50895, 206.844162, 206.189438)">
            <path class="cls-4" d="M384.54,463.32c-8.13,8.34-20,14.33-35.58,17.99,8.4,2.31,14.77,6.07,19.11,11.28,4.34,5.22,6.51,11.22,6.51,17.99,0,10.71-3.36,19.99-10.06,27.85-6.71,7.86-16.5,13.93-29.38,18.2-12.88,4.27-28.4,6.4-46.56,6.4-6.78,0-12.2-.2-16.26-.61-.14,3.79-3.25,15.69-6.36,17.59-3.12,1.9-7.12,2.85-11.99,2.85s-8.24-1.09-10.07-3.25c-1.83-2.17-1.13-14.41-.86-18.61,1.22-18.97.35-9.8,3.87-30.61,3.52-20.8,8-40.9,13.42-60.28.95-3.39,1.67-12.74,4.52-14.1,2.85-1.35,5.47-1.17,10.08-1.17,8.27,0,25.87.55,25.87,5.16,0,1.9-11.6,11.94-12.42,14.38-3.53,10.57-7.05,24.91-10.57,43-3.53,18.09-2.79,6.28-4.28,22.68,6.51.54,11.79.81,15.86.81,18.97,0,32.9-2.75,41.78-8.23,8.88-5.49,13.32-12.5,13.32-21.04,0-5.96-2.54-10.98-7.63-15.05-5.08-4.07-13.59-6.3-25.52-6.71-2.71-.13-4.61-.81-5.69-2.03s-1.63-3.18-1.63-5.9c0-3.93.81-7.12,2.44-9.56,1.63-2.44,4.61-3.73,8.95-3.86,9.62-.27,18.33-1.69,26.13-4.27,7.79-2.57,13.93-6.2,18.4-10.88,4.47-4.68,6.71-10.13,6.71-16.37,0-7.86-3.86-14.06-11.59-18.6-7.73-4.54-19.59-6.81-35.58-6.81-14.51,0-28.53,1.86-42.08,5.59-13.55,3.73-25.08,8.44-34.56,14.13-4.34,2.58-8,3.86-10.98,3.86-2.44,0-4.31-.84-5.59-2.54-1.29-1.69-1.93-3.83-1.93-6.4,0-3.39.71-6.3,2.14-8.74,1.42-2.44,4.84-5.22,10.27-8.34,11.39-6.51,24.74-11.59,40.05-15.25,15.31-3.66,30.97-5.49,46.96-5.49,24.53,0,42.83,4.14,54.89,12.4,12.06,8.27,18.09,19.18,18.09,32.73,0,11.52-4.07,21.45-12.2,29.78Z" style="fill: rgb(177, 127, 74);"/>
            <path class="cls-4" d="M489.46,549.54c-6.71,4.61-21.97,15.13-30.51,15.13-6.51,0-11.29-2.51-14.34-7.52-3.05-5.01-4.57-12.06-4.57-21.14-2.31,9.22-5.76,16.3-10.37,21.25-4.61,4.95-9.55,7.42-14.84,7.42-6.1,0-11.08-2.81-14.94-8.44-3.86-5.62-5.8-12.64-5.8-21.04,0-10.17.68-19.48,2.03-27.96,1.35-8.47,3.59-17.45,6.71-26.94,1.35-4.07,3.25-6.98,5.69-8.74,2.44-1.76,6.3-2.64,11.59-2.64,2.98,0,5.05.48,6.2,1.42,1.15.95,1.73,2.37,1.73,4.27,0,1.09-.74,4.75-2.24,10.98-1.35,5.02-2.44,9.56-3.25,13.62-2.71,14.23-4.06,23.72-4.06,28.46,0,2.85.34,4.85,1.02,6,.68,1.15,1.76,1.73,3.25,1.73,2.03,0,4.58-2.03,7.63-6.1,3.05-4.07,6.3-10.23,9.76-18.5,3.46-8.27,6.81-18.43,10.06-30.5,1.08-4.07,2.75-6.98,4.98-8.74,2.24-1.76,5.59-2.64,10.07-2.64,3.12,0,5.28.38,6.5,1.12,1.22.75,1.83,2.13,1.83,4.17,0,3.39-1.7,12.68-5.08,27.85-3.79,17.35-5.69,28.06-5.69,32.12,0,2.58.54,4.57,1.63,6,1.08,1.42,2.51,2.14,4.27,2.14,2.71,0,5.93-1.66,9.66-4.98,3.73-3.32,3.89-4.15,10.12-11.6" style="fill: rgb(177, 127, 74);"/>
            <path class="cls-4" d="M577.35,530.5c-5.08,2.78-5.77,4.7-11.47,4.7-7.19,0-12.64-1.83-16.37-5.49-3.73-3.66-5.59-8.61-5.59-14.84,0-2.03.2-4.07.61-6.1.27-2.71.41-4.54.41-5.49,0-2.17-.74-3.25-2.24-3.25-2.03,0-4.71,2.27-8.03,6.81-3.32,4.54-6.61,10.54-9.86,17.99-3.25,7.45-5.9,15.32-7.93,23.58-1.49,6.37-3.22,10.67-5.18,12.91-1.97,2.24-5.05,3.36-9.25,3.36-5.15,0-8.78-2.71-10.88-8.13-2.1-5.42-3.15-14.1-3.15-26.02,0-17.62,2.51-34.36,7.52-50.22,1.22-3.93,3.22-6.81,6-8.64,2.78-1.83,6.67-2.74,11.69-2.74,2.71,0,4.61.34,5.69,1.02,1.09.68,1.63,1.97,1.63,3.86,0,2.17-1.02,7.05-3.05,14.64-1.35,5.42-2.44,10.17-3.25,14.23-.81,4.07-1.49,9.08-2.03,15.04,4.47-11.65,9.49-21.14,15.04-28.46,5.56-7.32,11.01-12.54,16.37-15.66,5.35-3.12,10.27-4.68,14.74-4.68,8.81,0,13.21,4.41,13.21,13.21,0,1.76-.61,6.03-1.83,12.81-1.09,5.42-1.63,8.81-1.63,10.17,0,4.75,1.69,7.12,5.08,7.12,3.79,0,4.47-2.77,10.44-8.73" style="fill: rgb(177, 127, 74);"/>
            <path class="cls-4" d="M682.17,543.83l-36.39,22.07c-5.15,28.06-11.89,50.12-20.23,66.18-8.33,16.06-18.94,24.09-31.82,24.09-6.91,0-12.54-2.14-16.88-6.41-4.34-4.27-6.5-9.86-6.5-16.77,0-9.63,3.79-19.96,11.38-31.01,7.59-11.05,21.82-24.64,42.69-40.76l1.22-7.93c-2.31,3.66-5.32,6.47-9.05,8.44-3.73,1.96-7.42,2.95-11.08,2.95-8.41,0-15.12-3.05-20.13-9.15-5.01-6.1-7.52-14.1-7.52-23.99,0-10.84,2.51-21.11,7.52-30.8,5.01-9.69,11.69-17.49,20.03-23.38,8.34-5.9,17.18-8.84,26.53-8.84,2.98,0,4.98.58,6,1.73,1.02,1.15,1.86,3.22,2.54,6.2,2.57-.54,5.56-.81,8.94-.81s5.8.51,7.22,1.53c1.42,1.02,2.14,3.02,2.14,6,0,1.63-.07,2.92-.2,3.86-.54,4.2-2.24,14.84-5.08,31.92-.54,3.25-1.12,6.81-1.73,10.67-.61,3.86-1.26,7.96-1.93,12.3,10.44-8.13,17.06-12.95,26.69-19.19M607.46,624.24c4.27-8.13,8.37-21.08,12.3-38.83-10.44,8.95-17.96,17.01-22.57,24.19-4.61,7.18-6.91,13.48-6.91,18.91,0,2.3.44,4.2,1.32,5.69.88,1.49,2.34,2.24,4.37,2.24,3.39,0,7.22-4.07,11.49-12.2ZM621.79,538.45c2.85-3.79,4.88-9.21,6.1-16.26l6.51-34.77c-5.56.14-10.71,2.27-15.45,6.4-4.75,4.14-8.54,9.59-11.39,16.37-2.85,6.78-4.27,13.96-4.27,21.55,0,4.2.85,7.32,2.54,9.35,1.69,2.03,4.03,3.05,7.02,3.05s6.1-1.9,8.94-5.69Z" style="fill: rgb(177, 127, 74);"/>
            <path class="cls-4" d="M761.88,551.93c-9.15,5.15-29.27,12.75-39.71,12.75-14.23,0-25.28-3.86-33.14-11.59-7.86-7.73-11.79-18.3-11.79-31.72,0-9.35,1.96-18.06,5.9-26.13,3.93-8.06,9.38-14.47,16.37-19.21,6.98-4.74,14.87-7.12,23.69-7.12,7.86,0,14.16,2.34,18.91,7.01,4.75,4.68,7.12,11.01,7.12,19.01,0,9.35-3.36,17.38-10.06,24.09-6.71,6.71-18.06,12.03-34.06,15.96,3.39,6.23,9.83,9.35,19.31,9.35,6.1,0,13.04-2.14,20.84-6.41,7.79-4.27,9.66-5.21,15.35-12.12M707.02,497.58c-3.46,5.83-5.19,12.88-5.19,21.14v.41c8-1.9,14.3-4.74,18.91-8.54,4.61-3.79,6.91-8.2,6.91-13.22,0-2.57-.71-4.64-2.14-6.2-1.42-1.56-3.36-2.34-5.8-2.34-5.01,0-9.25,2.92-12.71,8.74Z" style="fill: rgb(177, 127, 74);"/>
            <path class="cls-4" d="M849.95,499.92c2.1,2.1,3.15,4.71,3.15,7.83,0,1.76-.41,3.66-1.22,5.69-2.17,5.02-5.22,9.22-9.15,12.6-3.93,3.39-8.27,5.08-13.01,5.08-3.8,0-7.02-1.35-9.66-4.07-2.64-2.71-3.97-6.37-3.97-10.98,0-2.57.13-5.35.41-8.34.27-2.17.41-3.66.41-4.47,0-1.08-.24-1.9-.71-2.44-.48-.54-1.05-.81-1.73-.81-1.9,0-4.47,2.27-7.72,6.81-3.25,4.54-6.51,10.54-9.76,17.99-3.25,7.45-5.9,15.32-7.93,23.58-1.49,6.51-3.18,10.85-5.08,13.01-1.9,2.17-5.02,3.25-9.35,3.25-5.15,0-8.78-2.71-10.88-8.13-2.1-5.42-3.15-14.1-3.15-26.02,0-17.62,2.51-34.36,7.52-50.22,1.22-3.93,3.22-6.81,6-8.64,2.78-1.83,6.67-2.74,11.69-2.74,2.71,0,4.61.34,5.69,1.02,1.09.68,1.63,1.97,1.63,3.86,0,2.17-1.02,7.05-3.05,14.64-1.35,5.42-2.44,10.17-3.25,14.23-.81,4.07-1.49,9.08-2.03,15.04,4.47-11.65,9.49-21.14,15.04-28.46,5.56-7.32,10.98-12.54,16.26-15.66,5.29-3.12,10.1-4.68,14.44-4.68,3.93,0,6.94,1.12,9.05,3.35,2.1,2.24,3.15,5.52,3.15,9.86,0,2.58-.75,7.46-2.24,14.64h1.83c2.98,0,5.52,1.05,7.63,3.15Z" style="fill: rgb(177, 127, 74);"/>
          </g>
          <g style="" transform="matrix(0.736444, 0, 0, 0.652505, 240.663406, 16.065041)">
            <path class="cls-2" d="M794.82,719.87c-5.87,8.37-42.92,6.9-49.03-1.01-6.11-7.91-9.17-19.24-9.17-34,0-3.58.16-7.17.48-10.75-6.96,1.27-14.55,2.21-22.77,2.85-5.48.42-9.23.69-11.23.79-2.11,10.75-5.06,23.94-8.86,39.54-2.21,9.17-6.43,13.76-12.65,13.76-6.75,0-10.12-3.06-10.12-9.17,0-1.37.26-3.27.79-5.69,3.58-14.44,6.43-26.67,8.54-36.69l-7.59.32c-3.48,0-6.01-.6-7.59-1.82-1.58-1.21-2.37-3.19-2.37-5.93,0-3.48,1-6.03,3-7.67,2-1.63,5.33-2.56,9.96-2.77l8.38-.32c2.74-14.87,4.11-26.2,4.11-34,0-4.95-.74-8.33-2.21-10.12-1.48-1.79-3.43-2.69-5.85-2.69-7.38,0-15.71,6.17-24.99,18.5-1.37,1.79-2.9,2.69-4.59,2.69-1.48,0-2.74-.68-3.79-2.06-1.05-1.37-1.58-3.11-1.58-5.22,0-3.27,1.32-6.75,3.95-10.44,4.64-6.43,10.49-11.73,17.56-15.9,7.06-4.16,14.23-6.25,21.51-6.25,6.85,0,12.15,2.35,15.89,7.04,3.74,4.69,5.62,11.99,5.62,21.9,0,8.75-1.27,20.61-3.8,35.58l15.5-.79c6.64-.32,12.33-.84,17.08-1.58,1.9-11.6,4.8-22.46,8.7-32.58,3.9-10.12,8.75-18.35,14.55-24.67,5.8-6.33,12.28-9.49,19.45-9.49,5.27,0,9.44,2.08,12.49,6.25,3.06,4.17,4.59,9.62,4.59,16.37,0,26.15-13.34,44.28-40.01,54.4-.32,4.22-.48,8.6-.48,13.13,0,11.07,1.37,18.92,4.11,23.56,2.74,4.64,6.59,6.96,11.55,6.96,4.32,0,14.28-5.11,17.87-7.38M773.55,611.33c-2.59,4.22-5.04,9.96-7.35,17.24-2.32,7.27-4.17,15.24-5.54,23.88,8.44-3.48,14.65-8.43,18.66-14.87,4.01-6.43,6.01-14.71,6.01-24.83,0-2.42-.42-4.32-1.27-5.69-.84-1.37-1.9-2.06-3.16-2.06-2.32,0-4.77,2.11-7.35,6.33Z" style="stroke: none; fill: rgb(177, 127, 74);"/>
            <path class="cls-2" d="M875.08,714.76c-4.32,5.38-5.99,6.75-10.84,10.44-4.85,3.69-9.55,5.54-14.08,5.54-3.48,0-6.67-1.19-9.57-3.56-2.9-2.37-5.09-5.61-6.56-9.73-5.48,8.86-12.39,13.29-20.72,13.29-6.54,0-11.76-2.37-15.66-7.12-3.9-4.75-5.85-10.96-5.85-18.66,0-8.43,1.95-16.42,5.85-23.96,3.9-7.54,9.1-13.6,15.58-18.19,6.48-4.59,13.37-6.88,20.64-6.88,2.32,0,3.87.45,4.67,1.34.79.9,1.45,2.51,1.98,4.82,2.21-.42,4.53-.63,6.96-.63,5.16,0,7.75,1.85,7.75,5.53,0,2.21-.79,7.49-2.37,15.82-2.43,12.13-3.64,20.56-3.64,25.3,0,1.58.4,2.84,1.19,3.79.79.95,1.82,1.42,3.08,1.42,2,0,4.43-1.29,7.27-3.87,2.85-2.58,4.38-4.85,9.23-10.65M825.65,710.64c2.11-2.74,3.64-6.38,4.59-10.91l5.85-29.1c-4.43.11-8.52,1.77-12.26,4.98-3.74,3.22-6.72,7.46-8.93,12.73-2.21,5.27-3.32,10.86-3.32,16.76,0,3.27.66,5.69,1.98,7.27,1.32,1.58,3.14,2.37,5.46,2.37s4.53-1.37,6.64-4.11Z" style="stroke: none; fill: rgb(177, 127, 74);"/>
            <path class="cls-2" d="M925.57,715.78c-5.33,3.59-22.16,14.95-28.91,14.95-9.28,0-16.16-4.22-20.64-12.65-4.48-8.43-6.72-19.34-6.72-32.73s1.66-27.52,4.98-43.96c3.32-16.45,8.22-30.57,14.71-42.38,6.48-11.81,14.21-17.71,23.17-17.71,5.06,0,9.04,2.35,11.94,7.04,2.9,4.69,4.35,11.41,4.35,20.16,0,12.55-3.48,27.1-10.44,43.65-6.96,16.56-16.39,32.95-28.31,49.18.74,4.32,1.95,7.41,3.64,9.25,1.68,1.84,3.9,2.77,6.64,2.77,4.32,0,8.12-1.24,11.39-3.72,3.27-2.48,5.25-4.86,10.31-10.87M900.46,610.07c-3.06,8.75-5.75,19.61-8.06,32.58-2.32,12.97-3.59,25.41-3.8,37.32,7.48-12.33,13.44-24.7,17.87-37.09,4.43-12.39,6.64-23.69,6.64-33.92,0-8.01-1.48-12.02-4.43-12.02-2.43,0-5.17,4.37-8.22,13.13Z" style="stroke: none; fill: rgb(177, 127, 74);"/>
            <path class="cls-2" d="M968.93,706.06c1.27,0,2.29.71,3.09,2.14.79,1.42,1.18,3.14,1.18,5.14,0,4.43-1.58,7.96-4.74,10.6-5.48,4.53-11.7,6.8-18.66,6.8-10.02,0-17.34-4.19-21.98-12.57-4.64-8.38-6.96-19.32-6.96-32.81s1.66-27.52,4.98-43.96c3.32-16.45,8.22-30.57,14.71-42.38,6.48-11.81,14.21-17.71,23.17-17.71,5.06,0,9.04,2.35,11.94,7.04,2.9,4.69,4.35,11.41,4.35,20.16,0,12.55-3.45,27.1-10.36,43.65-6.91,16.56-16.32,32.9-28.23,49.03.74,4.32,2.06,7.43,3.95,9.33s4.48,2.85,7.75,2.85c1.79,0,3.82-.53,6.09-1.58,2.26-1.05,4.35-2.42,6.25-4.11,1.16-1.05,2.32-1.58,3.48-1.58ZM952.01,610.07c-3.06,8.75-5.75,19.61-8.06,32.58-2.32,12.97-3.59,25.41-3.8,37.32,7.48-12.33,13.44-24.7,17.87-37.09,4.43-12.39,6.64-23.69,6.64-33.92,0-8.01-1.48-12.02-4.43-12.02-2.43,0-5.17,4.37-8.22,13.13Z" style="stroke: none; fill: rgb(177, 127, 74);"/>
          </g>
        </g>
      </g>
    </g>
    <g transform="matrix(0.735503, 0, 0, 0.745378, 165.298798, 285.243896)" style="">
      <path class="cls-4" d="M 539.9 6.534 C 593.32 5.204 649.1 8.674 702.03 15.664 C 759.7 23.274 848.11 38.094 869.31 100.974 C 892.83 170.744 874.35 279.254 852.66 348.764 C 841.65 384.074 832.59 412.124 793.35 421.644 C 758.21 430.174 694.7 428.874 659.44 420.294 C 657.84 419.904 655.5 419.694 655.4 417.624 C 655.38 416.414 665.95 397.994 667.29 396.634 C 667.97 395.944 667.98 395.394 669.29 395.244 C 672.32 394.914 684.45 397.974 688.78 398.514 C 720.95 402.544 764.95 405.274 795.82 394.654 C 805.15 391.444 806.64 390.244 811.6 381.814 C 825.12 358.844 834.63 323.904 840.37 297.764 C 851.46 247.284 868.35 135.394 840.5 91.044 C 820.72 59.534 743.58 43.524 708.61 37.704 C 602.76 20.094 494.81 24.434 388.1 30.714 C 337.52 33.694 240.44 39.914 201.59 73.214 C 178.31 93.164 177.73 107.714 168.1 134.024 C 165.85 140.164 164.3 137.104 164.52 132.134 C 165.57 107.924 184.43 77.734 202.44 62.264 C 238.98 30.864 305.29 23.824 351.9 18.924 C 413.17 12.474 478.29 8.064 539.9 6.534 L 539.9 6.534 Z" style="stroke-width: 1; fill: rgb(177, 127, 74);"/>
      <path class="cls-4" d="M 638.16 331.284 L 639.42 333.374 C 616.72 345.394 591.85 355.374 571.67 371.714 C 541.4 396.224 529.43 432.104 486.36 438.804 C 471.72 441.084 446.15 441.354 433.21 433.504 C 411.39 420.274 426.57 405.854 428.08 388.094 C 431.6 346.614 403.66 334.324 368.59 350.494 C 331.5 367.584 314.25 398.854 285.41 423.914 C 262.17 444.104 228.61 447.014 205.78 424.354 C 192.45 411.124 182.34 374.374 162.05 371.194 C 156.42 370.314 144.82 376.494 138.89 378.444 C 117.11 385.594 87.18 390.974 64.83 384.274 C 62.29 383.514 48.33 378.714 54.2 374.594 C 56.85 372.734 68.28 377.934 72.06 378.724 C 83.86 381.204 99.82 380.534 111.68 378.184 C 141.68 372.224 160.57 344.424 188.56 376.734 C 201.25 391.394 205.26 413.594 223.6 422.524 C 261.93 441.194 286.14 401.484 308.51 377.984 C 334.5 350.684 373.74 314.424 414.84 330.634 C 438.96 340.154 445.34 363.114 443.28 387.294 C 442.74 393.654 433.92 414.424 436.1 417.994 C 437.85 420.844 444.86 423.114 448.11 423.654 C 480.69 429.154 504.19 418.924 526.19 396.114 C 548.73 372.754 583.64 331.274 619.64 331.274 L 638.16 331.274 L 638.16 331.284 Z" style="stroke-width: 1; fill: rgb(177, 127, 74);"/>
      <path class="cls-4" d="M 242.03 -34.136 C 241.37 -37.426 245.05 -38.346 247.55 -39.136 C 272.62 -47.036 306.7 -53.446 332.95 -58.976 C 365.06 -65.746 399.26 -71.946 431.9 -75.376 C 456.66 -77.976 498.71 -81.226 522.01 -73.726 C 534.43 -69.726 534.08 -56.876 522.75 -52.676 C 503.46 -56.136 484.46 -60.306 464.77 -61.106 C 411.97 -63.236 351.2 -55.396 299.27 -45.506 C 280.16 -41.866 261.37 -36.246 242.04 -34.126 L 242.03 -34.136 Z" style="stroke-width: 1; fill: rgb(177, 127, 74);"/>
      <path class="cls-4" d="M 295.29 5.234 C 290.06 -0.336 300.84 -24.276 304.19 -30.476 C 305.86 -33.566 310.19 -41.036 312.39 -43.326 C 314.47 -45.496 317.39 -45.966 316.28 -42.826 C 315.3 -40.046 313.19 -37.246 312.12 -34.336 C 309.87 -28.236 308.11 -19.996 307.67 -13.526 C 307.36 -8.966 308.62 -0.606 307.53 3.174 C 306.34 7.284 298.14 8.264 295.3 5.244 L 295.29 5.234 Z" style="stroke-width: 1; fill: rgb(177, 127, 74);"/>
      <path class="cls-4" d="M 437.55 -50.286 C 437.13 -51.006 437.41 -51.866 437.36 -52.646 C 450.7 -52.366 469.64 -32.046 466.64 -18.726 C 464.78 -10.486 449.24 -13.726 449.93 -22.756 C 450.13 -25.396 451.8 -26.896 451.74 -30.336 C 451.65 -34.796 447.92 -41.396 444.93 -44.646 C 443.81 -45.856 437.84 -49.806 437.56 -50.296 L 437.55 -50.286 Z" style="stroke-width: 1; fill: rgb(177, 127, 74);"/>
      <path class="cls-1" d="M 452.14 307.684 C 463.71 280.084 493.43 266.114 518.99 273.904 C 539.9 280.274 555.22 300.334 556.77 324.014" style="fill: none; stroke-linecap: round; stroke-miterlimit: 10; stroke-width: 11; stroke: rgb(177, 127, 74);"/>
      <path class="cls-1" d="M 295.66 325.154 C 284.76 304.654 259.77 296.284 239.32 304.494 C 222.6 311.204 211.15 328.104 211.13 346.654" style="fill: none; stroke-linecap: round; stroke-miterlimit: 10; stroke-width: 11; stroke: rgb(177, 127, 74);"/>
      <path class="cls-4" d="M 374.81 -217.78 C 375.92 -217.98 376.51 -218.11 377.57 -217.65 C 380.27 -214.3 377.09 -205.78 376.43 -201.78 C 375.98 -199.06 375.83 -196.2 375.58 -193.45 C 374.12 -177.85 374.83 -160.32 381.38 -145.83 C 384.58 -138.74 388.73 -131.82 389.57 -123.94 C 390.86 -111.79 384.2 -99.76 376.8 -90.626 C 374.46 -87.746 372.1 -85.406 368.29 -84.986 C 367 -90.046 368.47 -96.766 368.75 -102 C 369.06 -107.22 368.6 -112.45 367.38 -117.53 C 365.71 -124.48 362.26 -130.36 358.51 -136.36 C 350.43 -149.28 347.39 -160.69 350.1 -175.99 C 352.9 -191.75 361.53 -208.44 374.81 -217.77 L 374.81 -217.78 Z" style="stroke-width: 1; fill: rgb(177, 127, 74);"/>
      <path class="cls-4" d="M 306.35 -141.76 L 306.74 -141.85 C 306.98 -141.69 307.08 -141.66 307.27 -141.39 C 307.93 -140.43 308.34 -138.57 308.76 -137.44 C 310.31 -133.28 311.88 -129.11 314.47 -125.47 C 318.5 -119.8 324.44 -117 329.81 -112.91 C 335.41 -108.65 338.27 -103.27 339.14 -96.316 C 340.09 -88.746 339.61 -78.676 334.76 -72.416 C 334.64 -72.396 334.53 -72.376 334.41 -72.366 C 334.38 -72.366 333.39 -72.326 333.38 -72.336 C 332.63 -72.586 329.68 -85.126 328.91 -86.916 C 326.51 -92.476 322.61 -98.026 317.59 -101.51 C 314.91 -103.37 312.01 -104.93 309.55 -107.09 C 304.28 -111.72 301.06 -118.26 300.62 -125.27 C 300.29 -131.38 302.25 -137.22 306.36 -141.77 L 306.35 -141.76 Z" style="stroke-width: 1; fill: rgb(177, 127, 74);"/>
      <path class="cls-4" d="M 418.47 -151.48 L 419.38 -151.41 C 420.84 -149.53 417.85 -143.52 417.27 -141.3 C 416.86 -139.68 416.59 -138.02 416.47 -136.35 C 415.89 -128.52 420.53 -122.49 422.08 -115.14 C 423.42 -108.8 421.69 -102.89 418.14 -97.576 C 415.65 -93.856 412.43 -89.656 407.82 -88.756 C 405.68 -90.296 407.07 -92.516 407.71 -94.586 C 409.91 -101.72 410.14 -109.72 407.48 -116.77 C 406.67 -118.93 404.59 -125.33 403.73 -127.46 C 401.87 -132.04 403.38 -133.85 405.27 -138.32 C 407.85 -144.43 412.36 -148.96 418.48 -151.48 L 418.47 -151.48 Z" style="stroke-width: 1; fill: rgb(177, 127, 74);"/>
      <path class="cls-2" d="M 10.21 471.414 C 11.3 466.534 13.26 459.354 16.97 451.134 C 19.48 445.564 23.54 436.584 26.07 437.144 C 28.9 437.774 26.34 449.554 31.08 467.454 C 31.23 468.014 32.25 471.374 34.3 478.084 C 37.94 490.034 38.82 492.644 39.75 492.584 C 41.07 492.494 40.5 487.134 43.02 480.154 C 45.55 473.164 49.64 468.834 54.9 463.254 C 59.46 458.424 63.23 455.634 70.71 450.114 C 71.92 449.224 79.96 443.284 80.47 443.904 C 80.8 444.294 77.59 446.744 74.47 450.994 C 70.46 456.454 69.04 461.584 67 468.924 C 65.99 472.554 64.59 477.724 63.95 484.734 C 63.41 490.634 62.73 505.384 65.42 505.934 C 70.2 506.924 81.86 462.324 86.41 463.364 C 87.64 463.644 87.52 467.054 88.54 474.594 C 91.29 495.004 92.43 495.914 93.01 495.964 C 94.24 496.064 95.52 492.594 97.43 487.404 C 100.22 479.824 100.5 475.784 101.52 475.794 C 102.65 475.794 103.81 481.124 106.1 491.764 C 107.11 496.474 107.5 498.684 108.33 498.744 C 109.49 498.824 110.21 494.604 112.53 487.784 C 114.68 481.474 116.96 476.854 121.52 467.614 C 125.83 458.894 126.6 458.524 126.86 458.624 C 127.7 458.914 125.31 464.324 125.5 472.194 C 125.66 478.974 127.64 484.054 129.75 489.474 C 133.26 498.474 135.13 503.264 137.44 503.214 C 139.83 503.154 142.1 497.924 150.14 461.734 C 153.46 446.804 155.03 438.884 156.35 439.004 C 157.88 439.144 156.9 449.844 160.04 468.804 C 160.93 474.194 161.53 476.464 162.17 482.164 C 163.26 491.954 162.69 495.964 163.86 496.224 C 165.91 496.694 169.77 484.924 180.32 465.424 C 183.46 459.624 185.69 455.914 186.7 456.264 C 187.96 456.714 185.96 463.064 185.12 475.014 C 184.57 482.854 184.83 488.574 185.12 494.964 C 185.53 503.974 185.74 508.474 186.7 508.594 C 189.23 508.914 194.25 481.024 202.73 465.364 C 204.66 461.804 206.98 457.784 206.98 457.784 C 208.21 455.654 211.02 450.864 214.88 444.814 C 217.38 440.904 216.54 442.384 222.62 433.204 C 226.29 427.654 227.49 425.764 227.74 425.904 C 228.18 426.134 224.99 432.114 223.11 437.134 C 220.7 443.574 219.47 450.994 222.07 474.744 C 223.61 488.814 225.49 505.974 227.78 505.924 C 229.39 505.894 228.96 497.404 233.19 480.414 C 236.45 467.334 238.02 467.084 242.13 450.874 C 244.23 442.604 245.07 437.734 246.16 437.794 C 247.62 437.874 247.68 446.734 249.32 458.184 C 250.93 469.394 255.41 492.504 260.33 492.524 C 264.27 492.544 263.1 477.704 275.7 463.854 C 279.65 459.514 284.85 455.384 288.46 452.514 C 293.65 448.384 300.6 443.414 301.11 444.014 C 301.5 444.474 297.61 447.584 294.24 452.194 C 292.1 455.124 288.52 460.904 286.17 475.634 C 284.38 486.854 282.96 505.454 285.95 506.054 C 288.05 506.474 291.7 497.894 298.6 481.634 C 303.71 469.604 305.83 463.014 307.54 463.314 C 308.91 463.554 308.81 467.974 310.37 481.084 C 312.24 496.734 313.21 497.404 313.64 497.434 C 316.29 497.644 319.15 475.734 322.03 475.954 C 323.11 476.034 323.36 479.164 325.74 487.514 C 328.03 495.574 329.18 499.604 330.43 499.614 C 332.83 499.624 332.44 486.514 340.35 470.394 C 343.12 464.744 347.08 458.404 347.76 458.724 C 348.18 458.924 347.12 461.464 346.45 464.394 C 344.58 472.574 346.73 479.554 348.41 485.004 C 350.38 491.394 353.83 502.604 357.79 502.444 C 362.05 502.274 365.19 488.374 371.31 460.584 C 374.6 445.644 375.72 438.374 377.09 438.454 C 379.56 438.594 380.88 462.484 381.56 474.754 C 382.38 489.554 382.16 496.314 384.07 496.664 C 385.61 496.944 387.8 492.964 401.51 464.614 C 404.05 459.364 405.85 455.614 406.85 455.894 C 408.63 456.394 405.66 469.174 405.21 489.694 C 405.03 497.844 404.81 508.314 406.63 508.614 C 410.02 509.174 417.47 473.894 430.29 452.414 C 432.58 448.584 437.79 440.564 438.03 440.204 C 444.38 430.464 448.45 424.204 449.26 424.614 C 450.23 425.104 444.9 434.414 441.74 446.414 C 435.85 468.764 439.74 491.824 444.57 492.534 C 447.89 493.024 453.5 482.564 461.2 470.714" style="stroke: rgb(58, 170, 53); stroke-width: 4;"/>
      <path class="cls-2" d="M 458.26 475.224 C 462.82 470.394 472.8 440.074 480.27 434.554 C 481.48 433.664 489.52 427.724 490.03 428.344 C 490.36 428.734 487.15 431.184 484.03 435.434 C 480.02 440.894 478.6 446.024 476.56 453.364 C 475.55 456.994 474.15 462.164 473.51 469.174 C 472.97 475.074 472.29 489.824 474.98 490.374 C 479.76 491.364 491.42 446.764 495.97 447.804 C 497.2 448.084 497.08 451.494 498.1 459.034 C 500.85 479.444 501.99 480.354 502.57 480.404 C 503.8 480.504 505.08 477.034 506.99 471.844 C 509.78 464.264 510.06 460.224 511.08 460.234 C 512.21 460.234 513.37 465.564 515.66 476.204 C 516.67 480.914 517.06 483.124 517.89 483.184 C 519.05 483.264 519.77 479.044 522.09 472.224 C 524.24 465.914 526.52 461.294 531.08 452.054 C 535.39 443.334 536.16 442.964 536.42 443.064 C 537.26 443.354 534.87 448.764 535.06 456.634 C 535.22 463.414 537.2 468.494 539.31 473.914 C 542.82 482.914 544.69 487.704 547 487.654 C 549.39 487.594 551.66 482.364 559.7 446.174 C 563.02 431.244 564.59 423.324 565.91 423.444 C 567.44 423.584 566.46 434.284 569.6 453.244 C 570.49 458.634 571.09 460.904 571.73 466.604 C 572.82 476.394 572.25 480.404 573.42 480.664 C 575.47 481.134 579.33 469.364 589.88 449.864 C 593.02 444.064 595.25 440.354 596.26 440.704 C 597.52 441.154 595.52 447.504 594.68 459.454 C 594.13 467.294 594.39 473.014 594.68 479.404 C 595.09 488.414 595.3 492.914 596.26 493.034 C 598.79 493.354 603.81 465.464 612.29 449.804 C 614.22 446.244 616.54 442.224 616.54 442.224 C 617.77 440.094 620.58 435.304 624.44 429.254 C 626.94 425.344 626.1 426.824 632.18 417.644 C 635.85 412.094 637.05 410.204 637.3 410.344 C 637.74 410.574 634.55 416.554 632.67 421.574 C 630.26 428.014 629.03 435.434 631.63 459.184 C 633.17 473.254 635.05 490.414 637.34 490.364 C 638.95 490.334 638.52 481.844 642.75 464.854 C 646.01 451.774 647.58 451.524 651.69 435.314 C 653.79 427.044 654.63 422.174 655.72 422.234 C 657.18 422.314 657.24 431.174 658.88 442.624 C 660.49 453.834 664.97 476.944 669.89 476.964 C 673.83 476.984 672.66 462.144 685.26 448.294 C 689.21 443.954 694.41 439.824 698.02 436.954 C 703.21 432.824 710.16 427.854 710.67 428.454 C 711.06 428.914 707.17 432.024 703.8 436.634 C 701.66 439.564 698.08 445.344 695.73 460.074 C 693.94 471.294 692.52 489.894 695.51 490.494 C 697.61 490.914 701.26 482.334 708.16 466.074 C 713.27 454.044 715.39 447.454 717.1 447.754 C 718.47 447.994 718.37 452.414 719.93 465.524 C 721.8 481.174 722.77 481.844 723.2 481.874 C 725.85 482.084 728.71 460.174 731.59 460.394 C 732.67 460.474 732.92 463.604 735.3 471.954 C 737.59 480.014 738.74 484.044 739.99 484.054 C 742.39 484.064 742 470.954 749.91 454.834 C 752.68 449.184 756.64 442.844 757.32 443.164 C 757.74 443.364 756.68 445.904 756.01 448.834 C 754.14 457.014 756.29 463.994 757.97 469.444 C 759.94 475.834 763.39 487.044 767.35 486.884 C 771.61 486.714 774.75 472.814 780.87 445.024 C 784.16 430.084 785.28 422.814 786.65 422.894 C 789.12 423.034 790.44 446.924 791.12 459.194 C 791.94 473.994 791.72 480.754 793.63 481.104 C 795.17 481.384 797.36 477.404 811.07 449.054 C 813.61 443.804 815.41 440.054 816.41 440.334 C 818.19 440.834 815.22 453.614 814.77 474.134 C 814.59 482.284 814.84 495.204 815.58 493.004" style="stroke: rgb(58, 170, 53); stroke-width: 4;"/>
      <path class="cls-3" d="M 815.95 493.674 C 819.98 480.254 828.04 460.564 845.28 443.004 C 855.38 432.724 873.05 423.464 873.5 424.334 C 873.95 425.204 854.46 463.284 856.39 464.554 C 858.36 465.854 883.85 429.974 885.72 431.224 C 887.26 432.244 871.61 457.314 873.72 458.784 C 875.93 460.324 896.51 435.054 898.16 436.334 C 899.72 437.544 880.66 459.314 887.27 470.554 C 887.7 471.284 888.9 473.984 890.83 474.114 C 893.99 474.324 896.15 467.524 903.52 452.664 C 907.55 444.544 909.69 440.964 911.42 438.264 C 916.97 429.624 920.99 423.374 925.42 423.904 C 929.21 424.354 932.26 429.634 932.53 434.044 C 933.01 441.884 924.5 449.004 916.97 450.714 C 912.16 451.804 909.19 450.344 908.3 451.824 C 907.38 453.364 909.08 457.464 922.97 469.604" style="fill: none; stroke: rgb(58, 170, 53); stroke-miterlimit: 10; stroke-width: 5;"/>
    </g>
  </g>
</svg>