<?xml version="1.0" encoding="utf-8"?>
<svg id="TEXTOS" xmlns="http://www.w3.org/2000/svg" viewBox="0 0 1024 1007.21" xmlns:bx="https://boxy-svg.com">
  <defs>
    <style>
      .cls-1 {
        fill: #fff;
      }

      .cls-2 {
        fill: none;
        stroke: #b17f4a;
        stroke-miterlimit: 10;
        stroke-width: 3px;
      }

      .cls-3 {
        fill: #ca9e67;
      }

      .cls-4 {
        fill: #936037;
      }
    </style>
    <bx:export>
      <bx:file format="png" path="Sin título.png"/>
    </bx:export>
  </defs>
  <g transform="matrix(1.105884, 0, 0, 1.12073, -9.291257, 340.730377)" style="">
    <path class="cls-4" d="M 539.9 6.534 C 593.32 5.204 649.1 8.674 702.03 15.664 C 759.7 23.274 848.11 38.094 869.31 100.974 C 892.83 170.744 874.35 279.254 852.66 348.764 C 841.65 384.074 832.59 412.124 793.35 421.644 C 758.21 430.174 694.7 428.874 659.44 420.294 C 657.84 419.904 655.5 419.694 655.4 417.624 C 655.38 416.414 665.95 397.994 667.29 396.634 C 667.97 395.944 667.98 395.394 669.29 395.244 C 672.32 394.914 684.45 397.974 688.78 398.514 C 720.95 402.544 764.95 405.274 795.82 394.654 C 805.15 391.444 806.64 390.244 811.6 381.814 C 825.12 358.844 834.63 323.904 840.37 297.764 C 851.46 247.284 868.35 135.394 840.5 91.044 C 820.72 59.534 743.58 43.524 708.61 37.704 C 602.76 20.094 494.81 24.434 388.1 30.714 C 337.52 33.694 240.44 39.914 201.59 73.214 C 178.31 93.164 177.73 107.714 168.1 134.024 C 165.85 140.164 164.3 137.104 164.52 132.134 C 165.57 107.924 184.43 77.734 202.44 62.264 C 238.98 30.864 305.29 23.824 351.9 18.924 C 413.17 12.474 478.29 8.064 539.9 6.534 L 539.9 6.534 Z" style="stroke-width: 1; fill: rgb(177, 127, 74);"/>
    <path class="cls-4" d="M 638.16 331.284 L 639.42 333.374 C 616.72 345.394 591.85 355.374 571.67 371.714 C 541.4 396.224 529.43 432.104 486.36 438.804 C 471.72 441.084 446.15 441.354 433.21 433.504 C 411.39 420.274 426.57 405.854 428.08 388.094 C 431.6 346.614 403.66 334.324 368.59 350.494 C 331.5 367.584 314.25 398.854 285.41 423.914 C 262.17 444.104 228.61 447.014 205.78 424.354 C 192.45 411.124 182.34 374.374 162.05 371.194 C 156.42 370.314 144.82 376.494 138.89 378.444 C 117.11 385.594 87.18 390.974 64.83 384.274 C 62.29 383.514 48.33 378.714 54.2 374.594 C 56.85 372.734 68.28 377.934 72.06 378.724 C 83.86 381.204 99.82 380.534 111.68 378.184 C 141.68 372.224 160.57 344.424 188.56 376.734 C 201.25 391.394 205.26 413.594 223.6 422.524 C 261.93 441.194 286.14 401.484 308.51 377.984 C 334.5 350.684 373.74 314.424 414.84 330.634 C 438.96 340.154 445.34 363.114 443.28 387.294 C 442.74 393.654 433.92 414.424 436.1 417.994 C 437.85 420.844 444.86 423.114 448.11 423.654 C 480.69 429.154 504.19 418.924 526.19 396.114 C 548.73 372.754 583.64 331.274 619.64 331.274 L 638.16 331.274 L 638.16 331.284 Z" style="stroke-width: 1; fill: rgb(177, 127, 74);"/>
    <path class="cls-4" d="M 242.03 -34.136 C 241.37 -37.426 245.05 -38.346 247.55 -39.136 C 272.62 -47.036 306.7 -53.446 332.95 -58.976 C 365.06 -65.746 399.26 -71.946 431.9 -75.376 C 456.66 -77.976 498.71 -81.226 522.01 -73.726 C 534.43 -69.726 534.08 -56.876 522.75 -52.676 C 503.46 -56.136 484.46 -60.306 464.77 -61.106 C 411.97 -63.236 351.2 -55.396 299.27 -45.506 C 280.16 -41.866 261.37 -36.246 242.04 -34.126 L 242.03 -34.136 Z" style="stroke-width: 1; fill: rgb(177, 127, 74);"/>
    <path class="cls-4" d="M 295.29 5.234 C 290.06 -0.336 300.84 -24.276 304.19 -30.476 C 305.86 -33.566 310.19 -41.036 312.39 -43.326 C 314.47 -45.496 317.39 -45.966 316.28 -42.826 C 315.3 -40.046 313.19 -37.246 312.12 -34.336 C 309.87 -28.236 308.11 -19.996 307.67 -13.526 C 307.36 -8.966 308.62 -0.606 307.53 3.174 C 306.34 7.284 298.14 8.264 295.3 5.244 L 295.29 5.234 Z" style="stroke-width: 1; fill: rgb(177, 127, 74);"/>
    <path class="cls-4" d="M 437.55 -50.286 C 437.13 -51.006 437.41 -51.866 437.36 -52.646 C 450.7 -52.366 469.64 -32.046 466.64 -18.726 C 464.78 -10.486 449.24 -13.726 449.93 -22.756 C 450.13 -25.396 451.8 -26.896 451.74 -30.336 C 451.65 -34.796 447.92 -41.396 444.93 -44.646 C 443.81 -45.856 437.84 -49.806 437.56 -50.296 L 437.55 -50.286 Z" style="stroke-width: 1; fill: rgb(177, 127, 74);"/>
    <path class="cls-1" d="M 452.14 307.684 C 463.71 280.084 493.43 266.114 518.99 273.904 C 539.9 280.274 555.22 300.334 556.77 324.014" style="fill: none; stroke-linecap: round; stroke-miterlimit: 10; stroke-width: 11; stroke: rgb(177, 127, 74);"/>
    <path class="cls-1" d="M 295.66 325.154 C 284.76 304.654 259.77 296.284 239.32 304.494 C 222.6 311.204 211.15 328.104 211.13 346.654" style="fill: none; stroke-linecap: round; stroke-miterlimit: 10; stroke-width: 11; stroke: rgb(177, 127, 74);"/>
    <path class="cls-4" d="M 374.81 -217.78 C 375.92 -217.98 376.51 -218.11 377.57 -217.65 C 380.27 -214.3 377.09 -205.78 376.43 -201.78 C 375.98 -199.06 375.83 -196.2 375.58 -193.45 C 374.12 -177.85 374.83 -160.32 381.38 -145.83 C 384.58 -138.74 388.73 -131.82 389.57 -123.94 C 390.86 -111.79 384.2 -99.76 376.8 -90.626 C 374.46 -87.746 372.1 -85.406 368.29 -84.986 C 367 -90.046 368.47 -96.766 368.75 -102 C 369.06 -107.22 368.6 -112.45 367.38 -117.53 C 365.71 -124.48 362.26 -130.36 358.51 -136.36 C 350.43 -149.28 347.39 -160.69 350.1 -175.99 C 352.9 -191.75 361.53 -208.44 374.81 -217.77 L 374.81 -217.78 Z" style="stroke-width: 1; fill: rgb(177, 127, 74);"/>
    <path class="cls-4" d="M 306.35 -141.76 L 306.74 -141.85 C 306.98 -141.69 307.08 -141.66 307.27 -141.39 C 307.93 -140.43 308.34 -138.57 308.76 -137.44 C 310.31 -133.28 311.88 -129.11 314.47 -125.47 C 318.5 -119.8 324.44 -117 329.81 -112.91 C 335.41 -108.65 338.27 -103.27 339.14 -96.316 C 340.09 -88.746 339.61 -78.676 334.76 -72.416 C 334.64 -72.396 334.53 -72.376 334.41 -72.366 C 334.38 -72.366 333.39 -72.326 333.38 -72.336 C 332.63 -72.586 329.68 -85.126 328.91 -86.916 C 326.51 -92.476 322.61 -98.026 317.59 -101.51 C 314.91 -103.37 312.01 -104.93 309.55 -107.09 C 304.28 -111.72 301.06 -118.26 300.62 -125.27 C 300.29 -131.38 302.25 -137.22 306.36 -141.77 L 306.35 -141.76 Z" style="stroke-width: 1; fill: rgb(177, 127, 74);"/>
    <path class="cls-4" d="M 418.47 -151.48 L 419.38 -151.41 C 420.84 -149.53 417.85 -143.52 417.27 -141.3 C 416.86 -139.68 416.59 -138.02 416.47 -136.35 C 415.89 -128.52 420.53 -122.49 422.08 -115.14 C 423.42 -108.8 421.69 -102.89 418.14 -97.576 C 415.65 -93.856 412.43 -89.656 407.82 -88.756 C 405.68 -90.296 407.07 -92.516 407.71 -94.586 C 409.91 -101.72 410.14 -109.72 407.48 -116.77 C 406.67 -118.93 404.59 -125.33 403.73 -127.46 C 401.87 -132.04 403.38 -133.85 405.27 -138.32 C 407.85 -144.43 412.36 -148.96 418.48 -151.48 L 418.47 -151.48 Z" style="stroke-width: 1; fill: rgb(177, 127, 74);"/>
    <path class="cls-2" d="M 10.21 471.414 C 11.3 466.534 13.26 459.354 16.97 451.134 C 19.48 445.564 23.54 436.584 26.07 437.144 C 28.9 437.774 26.34 449.554 31.08 467.454 C 31.23 468.014 32.25 471.374 34.3 478.084 C 37.94 490.034 38.82 492.644 39.75 492.584 C 41.07 492.494 40.5 487.134 43.02 480.154 C 45.55 473.164 49.64 468.834 54.9 463.254 C 59.46 458.424 63.23 455.634 70.71 450.114 C 71.92 449.224 79.96 443.284 80.47 443.904 C 80.8 444.294 77.59 446.744 74.47 450.994 C 70.46 456.454 69.04 461.584 67 468.924 C 65.99 472.554 64.59 477.724 63.95 484.734 C 63.41 490.634 62.73 505.384 65.42 505.934 C 70.2 506.924 81.86 462.324 86.41 463.364 C 87.64 463.644 87.52 467.054 88.54 474.594 C 91.29 495.004 92.43 495.914 93.01 495.964 C 94.24 496.064 95.52 492.594 97.43 487.404 C 100.22 479.824 100.5 475.784 101.52 475.794 C 102.65 475.794 103.81 481.124 106.1 491.764 C 107.11 496.474 107.5 498.684 108.33 498.744 C 109.49 498.824 110.21 494.604 112.53 487.784 C 114.68 481.474 116.96 476.854 121.52 467.614 C 125.83 458.894 126.6 458.524 126.86 458.624 C 127.7 458.914 125.31 464.324 125.5 472.194 C 125.66 478.974 127.64 484.054 129.75 489.474 C 133.26 498.474 135.13 503.264 137.44 503.214 C 139.83 503.154 142.1 497.924 150.14 461.734 C 153.46 446.804 155.03 438.884 156.35 439.004 C 157.88 439.144 156.9 449.844 160.04 468.804 C 160.93 474.194 161.53 476.464 162.17 482.164 C 163.26 491.954 162.69 495.964 163.86 496.224 C 165.91 496.694 169.77 484.924 180.32 465.424 C 183.46 459.624 185.69 455.914 186.7 456.264 C 187.96 456.714 185.96 463.064 185.12 475.014 C 184.57 482.854 184.83 488.574 185.12 494.964 C 185.53 503.974 185.74 508.474 186.7 508.594 C 189.23 508.914 194.25 481.024 202.73 465.364 C 204.66 461.804 206.98 457.784 206.98 457.784 C 208.21 455.654 211.02 450.864 214.88 444.814 C 217.38 440.904 216.54 442.384 222.62 433.204 C 226.29 427.654 227.49 425.764 227.74 425.904 C 228.18 426.134 224.99 432.114 223.11 437.134 C 220.7 443.574 219.47 450.994 222.07 474.744 C 223.61 488.814 225.49 505.974 227.78 505.924 C 229.39 505.894 228.96 497.404 233.19 480.414 C 236.45 467.334 238.02 467.084 242.13 450.874 C 244.23 442.604 245.07 437.734 246.16 437.794 C 247.62 437.874 247.68 446.734 249.32 458.184 C 250.93 469.394 255.41 492.504 260.33 492.524 C 264.27 492.544 263.1 477.704 275.7 463.854 C 279.65 459.514 284.85 455.384 288.46 452.514 C 293.65 448.384 300.6 443.414 301.11 444.014 C 301.5 444.474 297.61 447.584 294.24 452.194 C 292.1 455.124 288.52 460.904 286.17 475.634 C 284.38 486.854 282.96 505.454 285.95 506.054 C 288.05 506.474 291.7 497.894 298.6 481.634 C 303.71 469.604 305.83 463.014 307.54 463.314 C 308.91 463.554 308.81 467.974 310.37 481.084 C 312.24 496.734 313.21 497.404 313.64 497.434 C 316.29 497.644 319.15 475.734 322.03 475.954 C 323.11 476.034 323.36 479.164 325.74 487.514 C 328.03 495.574 329.18 499.604 330.43 499.614 C 332.83 499.624 332.44 486.514 340.35 470.394 C 343.12 464.744 347.08 458.404 347.76 458.724 C 348.18 458.924 347.12 461.464 346.45 464.394 C 344.58 472.574 346.73 479.554 348.41 485.004 C 350.38 491.394 353.83 502.604 357.79 502.444 C 362.05 502.274 365.19 488.374 371.31 460.584 C 374.6 445.644 375.72 438.374 377.09 438.454 C 379.56 438.594 380.88 462.484 381.56 474.754 C 382.38 489.554 382.16 496.314 384.07 496.664 C 385.61 496.944 387.8 492.964 401.51 464.614 C 404.05 459.364 405.85 455.614 406.85 455.894 C 408.63 456.394 405.66 469.174 405.21 489.694 C 405.03 497.844 404.81 508.314 406.63 508.614 C 410.02 509.174 417.47 473.894 430.29 452.414 C 432.58 448.584 437.79 440.564 438.03 440.204 C 444.38 430.464 448.45 424.204 449.26 424.614 C 450.23 425.104 444.9 434.414 441.74 446.414 C 435.85 468.764 439.74 491.824 444.57 492.534 C 447.89 493.024 453.5 482.564 461.2 470.714" style="stroke: rgb(58, 170, 53); stroke-width: 4;"/>
    <path class="cls-2" d="M 458.26 475.224 C 462.82 470.394 472.8 440.074 480.27 434.554 C 481.48 433.664 489.52 427.724 490.03 428.344 C 490.36 428.734 487.15 431.184 484.03 435.434 C 480.02 440.894 478.6 446.024 476.56 453.364 C 475.55 456.994 474.15 462.164 473.51 469.174 C 472.97 475.074 472.29 489.824 474.98 490.374 C 479.76 491.364 491.42 446.764 495.97 447.804 C 497.2 448.084 497.08 451.494 498.1 459.034 C 500.85 479.444 501.99 480.354 502.57 480.404 C 503.8 480.504 505.08 477.034 506.99 471.844 C 509.78 464.264 510.06 460.224 511.08 460.234 C 512.21 460.234 513.37 465.564 515.66 476.204 C 516.67 480.914 517.06 483.124 517.89 483.184 C 519.05 483.264 519.77 479.044 522.09 472.224 C 524.24 465.914 526.52 461.294 531.08 452.054 C 535.39 443.334 536.16 442.964 536.42 443.064 C 537.26 443.354 534.87 448.764 535.06 456.634 C 535.22 463.414 537.2 468.494 539.31 473.914 C 542.82 482.914 544.69 487.704 547 487.654 C 549.39 487.594 551.66 482.364 559.7 446.174 C 563.02 431.244 564.59 423.324 565.91 423.444 C 567.44 423.584 566.46 434.284 569.6 453.244 C 570.49 458.634 571.09 460.904 571.73 466.604 C 572.82 476.394 572.25 480.404 573.42 480.664 C 575.47 481.134 579.33 469.364 589.88 449.864 C 593.02 444.064 595.25 440.354 596.26 440.704 C 597.52 441.154 595.52 447.504 594.68 459.454 C 594.13 467.294 594.39 473.014 594.68 479.404 C 595.09 488.414 595.3 492.914 596.26 493.034 C 598.79 493.354 603.81 465.464 612.29 449.804 C 614.22 446.244 616.54 442.224 616.54 442.224 C 617.77 440.094 620.58 435.304 624.44 429.254 C 626.94 425.344 626.1 426.824 632.18 417.644 C 635.85 412.094 637.05 410.204 637.3 410.344 C 637.74 410.574 634.55 416.554 632.67 421.574 C 630.26 428.014 629.03 435.434 631.63 459.184 C 633.17 473.254 635.05 490.414 637.34 490.364 C 638.95 490.334 638.52 481.844 642.75 464.854 C 646.01 451.774 647.58 451.524 651.69 435.314 C 653.79 427.044 654.63 422.174 655.72 422.234 C 657.18 422.314 657.24 431.174 658.88 442.624 C 660.49 453.834 664.97 476.944 669.89 476.964 C 673.83 476.984 672.66 462.144 685.26 448.294 C 689.21 443.954 694.41 439.824 698.02 436.954 C 703.21 432.824 710.16 427.854 710.67 428.454 C 711.06 428.914 707.17 432.024 703.8 436.634 C 701.66 439.564 698.08 445.344 695.73 460.074 C 693.94 471.294 692.52 489.894 695.51 490.494 C 697.61 490.914 701.26 482.334 708.16 466.074 C 713.27 454.044 715.39 447.454 717.1 447.754 C 718.47 447.994 718.37 452.414 719.93 465.524 C 721.8 481.174 722.77 481.844 723.2 481.874 C 725.85 482.084 728.71 460.174 731.59 460.394 C 732.67 460.474 732.92 463.604 735.3 471.954 C 737.59 480.014 738.74 484.044 739.99 484.054 C 742.39 484.064 742 470.954 749.91 454.834 C 752.68 449.184 756.64 442.844 757.32 443.164 C 757.74 443.364 756.68 445.904 756.01 448.834 C 754.14 457.014 756.29 463.994 757.97 469.444 C 759.94 475.834 763.39 487.044 767.35 486.884 C 771.61 486.714 774.75 472.814 780.87 445.024 C 784.16 430.084 785.28 422.814 786.65 422.894 C 789.12 423.034 790.44 446.924 791.12 459.194 C 791.94 473.994 791.72 480.754 793.63 481.104 C 795.17 481.384 797.36 477.404 811.07 449.054 C 813.61 443.804 815.41 440.054 816.41 440.334 C 818.19 440.834 815.22 453.614 814.77 474.134 C 814.59 482.284 814.84 495.204 815.58 493.004" style="stroke: rgb(58, 170, 53); stroke-width: 4;"/>
    <path class="cls-3" d="M 815.95 493.674 C 819.98 480.254 828.04 460.564 845.28 443.004 C 855.38 432.724 873.05 423.464 873.5 424.334 C 873.95 425.204 854.46 463.284 856.39 464.554 C 858.36 465.854 883.85 429.974 885.72 431.224 C 887.26 432.244 871.61 457.314 873.72 458.784 C 875.93 460.324 896.51 435.054 898.16 436.334 C 899.72 437.544 880.66 459.314 887.27 470.554 C 887.7 471.284 888.9 473.984 890.83 474.114 C 893.99 474.324 896.15 467.524 903.52 452.664 C 907.55 444.544 909.69 440.964 911.42 438.264 C 916.97 429.624 920.99 423.374 925.42 423.904 C 929.21 424.354 932.26 429.634 932.53 434.044 C 933.01 441.884 924.5 449.004 916.97 450.714 C 912.16 451.804 909.19 450.344 908.3 451.824 C 907.38 453.364 909.08 457.464 922.97 469.604" style="fill: none; stroke: rgb(58, 170, 53); stroke-miterlimit: 10; stroke-width: 5;"/>
  </g>
</svg>